<svg version="1.2" xmlns="http://www.w3.org/2000/svg" viewBox="0 0 500 500" width="500" height="500">
	<defs>
		<clipPath clipPathUnits="userSpaceOnUse" id="cp1">
			<path d="m492 181.1c0.09 32.09-18.7 66.49-40.38 95.52-7.31-2.91-15.26-4.55-23.6-4.55-10.88 0-21.12 2.73-30.09 7.53-18.49-26.34-49.03-43.61-83.66-43.61-31.74 0-60.11 14.48-78.85 37.19-13.89-15.19-32.85-25.59-54.23-28.57-14.76-47.91-59.37-82.73-112.12-82.73-22.34 0-43.23 6.25-61 17.1 0 0-0.03 0-0.03-0.56-0.04-78.19 59.66-127.66 131.11-127.86 46.35-0.12 87.14 35.36 110.66 71.54 23.32-36.3 63.97-72.01 110.33-72.13 72.63-0.21 131.64 48.43 131.86 131.13zm-57.98-26.63c0-30.01-24.27-54.28-54.28-54.28-30.02 0-54.29 24.27-54.29 54.28 0 30.02 24.27 54.29 54.29 54.29 30.01 0 54.28-24.27 54.28-54.29z"/>
		</clipPath>
	</defs>
	<style>
		tspan { white-space:pre } 
		.s0 { fill: none;stroke: #0b66fd;stroke-miterlimit:10;stroke-width: 4 } 
		.s1 { fill: none;stroke: #849cf4;stroke-linecap: round;stroke-linejoin: round;stroke-width: .8 } 
		.s2 { fill: none;stroke: #849cf4;stroke-miterlimit:10;stroke-width: 4 } 
	</style>
	<g id="OBJECTS">
		<g id="&lt;Group&gt;">
			<g id="&lt;Group&gt;">
				<path id="&lt;Path&gt;" class="s0" d="m360.14 49.97c-46.36 0.12-87.01 35.83-110.33 72.13-23.52-36.18-64.31-71.66-110.66-71.54-72.63 0.21-131.37 49.17-131.15 131.86 0.22 75.75 105.63 163.97 105.63 163.97l137.19 136.45 136.45-137.2c0 0 104.94-88.79 104.73-164.54-0.22-82.7-59.23-131.34-131.86-131.13z"/>
				<path id="&lt;Path&gt;" class="s0" d="m113.63 346.39l137.19 136.45 136.45-137.2c0 0 34.85-29.52 64.35-69.02-7.31-2.91-15.26-4.55-23.6-4.55-10.88 0-21.12 2.73-30.09 7.53-18.49-26.34-49.03-43.61-83.66-43.61-31.74 0-60.11 14.48-78.85 37.19-13.89-15.19-32.85-25.59-54.23-28.57-14.76-47.91-59.37-82.73-112.12-82.73-22.34 0-43.23 6.25-61 17.1-0.02 1.15-0.07 2.28-0.07 3.44 0.22 75.75 105.63 163.97 105.63 163.97z"/>
				<g id="&lt;Clip Group&gt;" clip-path="url(#cp1)">
					<g id="&lt;Group&gt;">
						<path id="&lt;Path&gt;" class="s1" d="m8 18c30.24 0 30.24 19.36 60.49 19.36 30.25 0 30.25-19.36 60.49-19.36 30.24 0 30.24 19.36 60.47 19.36 30.25 0 30.25-19.36 60.49-19.36 30.25 0 30.25 19.36 60.51 19.36 30.24 0 30.24-19.36 60.49-19.36 30.26 0 30.26 19.36 60.53 19.36 30.26 0 30.26-19.36 60.53-19.36"/>
						<path id="&lt;Path&gt;" class="s1" d="m8 40.51c30.24 0 30.24 19.36 60.49 19.36 30.25 0 30.25-19.36 60.49-19.36 30.24 0 30.24 19.36 60.47 19.36 30.25 0 30.25-19.36 60.49-19.36 30.25 0 30.25 19.36 60.51 19.36 30.24 0 30.24-19.36 60.49-19.36 30.26 0 30.26 19.36 60.53 19.36 30.26 0 30.26-19.36 60.53-19.36"/>
						<path id="&lt;Path&gt;" class="s1" d="m8 63.01c30.24 0 30.24 19.36 60.49 19.36 30.25 0 30.25-19.36 60.49-19.36 30.24 0 30.24 19.36 60.47 19.36 30.25 0 30.25-19.36 60.49-19.36 30.25 0 30.25 19.36 60.51 19.36 30.24 0 30.24-19.36 60.49-19.36 30.26 0 30.26 19.36 60.53 19.36 30.26 0 30.26-19.36 60.53-19.36"/>
						<path id="&lt;Path&gt;" class="s1" d="m8 85.52c30.24 0 30.24 19.36 60.49 19.36 30.25 0 30.25-19.36 60.49-19.36 30.24 0 30.24 19.36 60.47 19.36 30.25 0 30.25-19.36 60.49-19.36 30.25 0 30.25 19.36 60.51 19.36 30.24 0 30.24-19.36 60.49-19.36 30.26 0 30.26 19.36 60.53 19.36 30.26 0 30.26-19.36 60.53-19.36"/>
						<path id="&lt;Path&gt;" class="s1" d="m8 108.03c30.24 0 30.24 19.36 60.49 19.36 30.25 0 30.25-19.36 60.49-19.36 30.24 0 30.24 19.36 60.47 19.36 30.25 0 30.25-19.36 60.49-19.36 30.25 0 30.25 19.36 60.51 19.36 30.24 0 30.24-19.36 60.49-19.36 30.26 0 30.26 19.36 60.53 19.36 30.26 0 30.26-19.36 60.53-19.36"/>
						<path id="&lt;Path&gt;" class="s1" d="m8 130.53c30.24 0 30.24 19.36 60.49 19.36 30.25 0 30.25-19.36 60.49-19.36 30.24 0 30.24 19.36 60.47 19.36 30.25 0 30.25-19.36 60.49-19.36 30.25 0 30.25 19.36 60.51 19.36 30.24 0 30.24-19.36 60.49-19.36 30.26 0 30.26 19.36 60.53 19.36 30.26 0 30.26-19.36 60.53-19.36"/>
						<path id="&lt;Path&gt;" class="s1" d="m8 153.04c30.24 0 30.24 19.36 60.49 19.36 30.25 0 30.25-19.36 60.49-19.36 30.24 0 30.24 19.36 60.47 19.36 30.25 0 30.25-19.36 60.49-19.36 30.25 0 30.25 19.36 60.51 19.36 30.24 0 30.24-19.36 60.49-19.36 30.26 0 30.26 19.36 60.53 19.36 30.26 0 30.26-19.36 60.53-19.36"/>
						<path id="&lt;Path&gt;" class="s1" d="m8 175.55c30.24 0 30.24 19.36 60.49 19.36 30.25 0 30.25-19.36 60.49-19.36 30.24 0 30.24 19.36 60.47 19.36 30.25 0 30.25-19.36 60.49-19.36 30.25 0 30.25 19.36 60.51 19.36 30.24 0 30.24-19.36 60.49-19.36 30.26 0 30.26 19.36 60.53 19.36 30.26 0 30.26-19.36 60.53-19.36"/>
						<path id="&lt;Path&gt;" class="s1" d="m8 198.06c30.24 0 30.24 19.36 60.49 19.36 30.25 0 30.25-19.36 60.49-19.36 30.24 0 30.24 19.36 60.47 19.36 30.25 0 30.25-19.36 60.49-19.36 30.25 0 30.25 19.36 60.51 19.36 30.24 0 30.24-19.36 60.49-19.36 30.26 0 30.26 19.36 60.53 19.36 30.26 0 30.26-19.36 60.53-19.36"/>
						<path id="&lt;Path&gt;" class="s1" d="m8 220.56c30.24 0 30.24 19.36 60.49 19.36 30.25 0 30.25-19.36 60.49-19.36 30.24 0 30.24 19.36 60.47 19.36 30.25 0 30.25-19.36 60.49-19.36 30.25 0 30.25 19.36 60.51 19.36 30.24 0 30.24-19.36 60.49-19.36 30.26 0 30.26 19.36 60.53 19.36 30.26 0 30.26-19.36 60.53-19.36"/>
						<path id="&lt;Path&gt;" class="s1" d="m8 243.07c30.24 0 30.24 19.36 60.49 19.36 30.25 0 30.25-19.36 60.49-19.36 30.24 0 30.24 19.36 60.47 19.36 30.25 0 30.25-19.36 60.49-19.36 30.25 0 30.25 19.36 60.51 19.36 30.24 0 30.24-19.36 60.49-19.36 30.26 0 30.26 19.36 60.53 19.36 30.26 0 30.26-19.36 60.53-19.36"/>
						<path id="&lt;Path&gt;" class="s1" d="m8 265.58c30.24 0 30.24 19.36 60.49 19.36 30.25 0 30.25-19.36 60.49-19.36 30.24 0 30.24 19.36 60.47 19.36 30.25 0 30.25-19.36 60.49-19.36 30.25 0 30.25 19.36 60.51 19.36 30.24 0 30.24-19.36 60.49-19.36 30.26 0 30.26 19.36 60.53 19.36 30.26 0 30.26-19.36 60.53-19.36"/>
						<path id="&lt;Path&gt;" class="s1" d="m8 288.08c30.24 0 30.24 19.36 60.49 19.36 30.25 0 30.25-19.36 60.49-19.36 30.24 0 30.24 19.36 60.47 19.36 30.25 0 30.25-19.36 60.49-19.36 30.25 0 30.25 19.36 60.51 19.36 30.24 0 30.24-19.36 60.49-19.36 30.26 0 30.26 19.36 60.53 19.36 30.26 0 30.26-19.36 60.53-19.36"/>
					</g>
				</g>
				<path id="&lt;Path&gt;" class="s2" d="m379.74 208.76c-30.02 0-54.29-24.27-54.29-54.29 0-30.01 24.27-54.28 54.29-54.28 30.01 0 54.28 24.27 54.28 54.28 0 30.02-24.27 54.29-54.28 54.29z"/>
			</g>
		</g>
	</g>
</svg>