<svg version="1.2" xmlns="http://www.w3.org/2000/svg" viewBox="0 -5.684341886080802e-14 500 500.00000000000006" width="500" height="501">
	<style>
		tspan { white-space:pre } 
		.s0 { fill: #155dfc } 
		.s1 { fill: #155dfc } 
		.s2 { opacity: .26;fill: #2b53f9 } 
		.s3 { fill: #ffffff } 
		.s4 { fill: #559aff } 
	</style>
	<g id="OBJECTS">
		<g id="&lt;Group&gt;">
			<g id="&lt;Group&gt;">
				<path id="&lt;Path&gt;" class="s0" d="m464.25 78.01h-16.06v-16.06c0-3.73-3.02-6.75-6.75-6.75-3.73 0-6.75 3.02-6.75 6.75v16.06h-16.06c-3.73 0-6.75 3.02-6.75 6.75 0 3.73 3.02 6.75 6.75 6.75h16.06v16.06c0 3.73 3.02 6.75 6.75 6.75 3.73 0 6.75-3.02 6.75-6.75v-16.06h16.06c3.73 0 6.75-3.02 6.75-6.75 0-3.73-3.02-6.75-6.75-6.75z"/>
				<path id="&lt;Path&gt;" class="s0" d="m97.01 389.65h-20.86v-20.86c0-4.84-3.92-8.77-8.76-8.77-4.84 0-8.77 3.93-8.77 8.77v20.86h-20.85c-4.85 0-8.77 3.92-8.77 8.76 0 4.84 3.92 8.77 8.77 8.77h20.85v20.85c0 4.85 3.93 8.77 8.77 8.77 4.84 0 8.76-3.92 8.76-8.77v-20.85h20.86c4.84 0 8.77-3.93 8.77-8.77 0-4.84-3.93-8.76-8.77-8.76z"/>
				<g id="&lt;Group&gt;">
					<g id="&lt;Group&gt;">
						<path id="&lt;Path&gt;" class="s1" d="m249.17 61.63v105.72c-5.04 3.57-8.32 9.46-8.32 16.14v47.18h-47.17c-10.97 0-19.84 8.87-19.84 19.84 0 5.47 2.22 10.41 5.79 14.01 3.6 3.57 8.55 5.8 14.05 5.8h47.17v47.21c0 6.64 3.28 12.54 8.32 16.11v78.83q0.01 2.22-0.23 4.39c-2.19 20.99-19.94 37.36-41.51 37.36-17.72 0-32.84-11.07-38.9-26.62-3.34 0.85-6.84 1.37-10.48 1.37-23.04 0-41.77-18.69-41.77-41.77 0-4.59 0.78-8.97 2.13-13.1-20.47-2.68-36.25-20.13-36.25-41.35 0-8.54 2.59-16.5 7.01-23.15-13.1-7.03-21.97-20.85-21.97-36.76 0-11.43 4.62-21.81 12.08-29.34-7.46-7.53-12.08-17.91-12.08-29.33 0-15.13 8.06-28.32 20.07-35.66-3.27-5.92-5.11-12.76-5.11-20.03 0-19.61 13.56-36.05 31.83-40.5-1.05-3.67-1.64-7.5-1.64-11.46 0-23.05 18.69-41.74 41.74-41.74 4.06 0 7.96 0.59 11.66 1.67-0.03-0.56-0.1-1.12-0.1-1.67 0-23.09 18.69-41.78 41.78-41.78 22 0 40 17.06 41.61 38.67 0.03 0 0.13-0.04 0.13-0.04z"/>
						<path id="&lt;Path&gt;" class="s1" d="m438.73 243.5c7.47 7.53 12.08 17.91 12.08 29.34 0 15.91-8.9 29.73-21.96 36.76 4.42 6.65 7 14.61 7 23.15 0 21.22-15.81 38.67-36.27 41.35 1.37 4.13 2.12 8.51 2.12 13.1 0 23.08-18.69 41.77-41.74 41.77-3.63 0-7.14-0.52-10.51-1.37-6.05 15.55-21.15 26.62-38.86 26.62-21.61 0-39.35-16.37-41.55-37.39-0.16-1.41-0.23-2.88-0.23-4.36v-76.87c6.88-3.08 11.69-10.02 11.69-18.07v-47.21h47.21c10.94 0 19.81-8.88 19.81-19.81 0-5.5-2.23-10.44-5.79-14.05-3.61-3.56-8.55-5.79-14.02-5.79h-47.21v-47.18c0-8.05-4.81-14.99-11.69-18.07v-103.79c0 0 0.1 0.04 0.17 0.04 1.57-21.61 19.58-38.67 41.61-38.67 23.05 0 41.74 18.69 41.74 41.78 0 0.55-0.06 1.11-0.06 1.67 3.7-1.08 7.59-1.67 11.62-1.67 23.08 0 41.78 18.69 41.78 41.74 0 3.96-0.59 7.79-1.64 11.46 18.27 4.45 31.82 20.89 31.82 40.5 0 7.27-1.86 14.11-5.1 20.03 12.01 7.34 20.06 20.53 20.06 35.66 0 11.42-4.61 21.8-12.08 29.33z"/>
					</g>
					<g id="&lt;Group&gt;" style="opacity: .59">
						<path id="&lt;Path&gt;" class="s2" d="m249.17 84.32v83.03c-5.04 3.57-8.32 9.46-8.32 16.14v47.18h-47.17c-10.97 0-19.84 8.87-19.84 19.84 0 5.47 2.22 10.41 5.79 14.01 3.6 3.57 8.55 5.8 14.05 5.8h47.17v47.21c0 6.64 3.28 12.54 8.32 16.11v78.83q0.01 2.22-0.23 4.39c-7.01-0.26-15.55-2.29-23.64-8.64-18.33-14.38-16.86-36.84-16.86-36.84 0 0-27.73 15.26-51.11-14.4-23.37-29.63 4.13-54.81 4.13-54.81 0 0-40.96-0.91-42.59-39.55-1.61-38.66 33.82-37.75 33.82-37.75 0 0-33.99-13.48-27.8-41.35 6.19-27.86 27.8-26.97 27.8-26.97 0 0-16.01-20.66 0-41.62 16.01-20.95 44.91-5.1 44.91-5.1 0 0-10.51-25.93 12.77-38.24 20.83-11.04 33.33 3.5 38.8 12.73z"/>
						<path id="&lt;Path&gt;" class="s2" d="m398.5 262.62c-1.61 38.64-42.6 39.55-42.6 39.55 0 0 27.5 25.18 4.13 54.81-23.38 29.66-51.11 14.4-51.11 14.4 0 0 1.47 22.46-16.86 36.84-7.83 6.15-16.11 8.25-23.02 8.61-0.16-1.41-0.23-2.88-0.23-4.36v-76.87c6.88-3.08 11.69-10.02 11.69-18.07v-47.21h47.21c10.94 0 19.81-8.88 19.81-19.81 0-5.5-2.23-10.44-5.79-14.05-3.61-3.56-8.55-5.79-14.02-5.79h-47.21v-47.18c0-8.05-4.81-14.99-11.69-18.07v-82.11c5.8-9.27 18.14-22.36 38.18-11.72 23.28 12.31 12.77 38.24 12.77 38.24 0 0 28.91-15.85 44.95 5.1 16.01 20.96 0 41.62 0 41.62 0 0 21.57-0.89 27.79 26.97 6.19 27.87-27.79 41.35-27.79 41.35 0 0 35.39-0.91 33.79 37.75z"/>
					</g>
					<g id="&lt;Group&gt;">
						<g id="&lt;Group&gt;">
							<path id="&lt;Path&gt;" class="s3" d="m179.6 123.92c-8.36-3.92-14.7-12.6-16.54-22.4-1.93-9.8 0.73-20.64 7.13-28.64 6.3-8.06 16.26-13.14 26.24-13.5 9.97-0.45 19.87 3.74 25.59 10.99-8.28-3.92-16.87-4.99-24.7-3.32-7.82 1.63-14.66 5.92-19.44 11.93-4.77 6.02-7.38 13.66-7.18 21.65 0.15 8.01 3.18 16.13 8.9 23.29z"/>
						</g>
						<g id="&lt;Group&gt;">
							<path id="&lt;Path&gt;" class="s3" d="m178.14 204.44c-8.36-3.93-14.7-12.6-16.54-22.4-1.93-9.8 0.73-20.65 7.13-28.64 6.31-8.07 16.26-13.14 26.25-13.5 9.96-0.46 19.86 3.74 25.58 10.99-8.28-3.92-16.87-4.99-24.7-3.32-7.82 1.63-14.66 5.92-19.43 11.93-4.77 6.01-7.39 13.66-7.19 21.65 0.16 8 3.18 16.13 8.9 23.29z"/>
						</g>
						<g id="&lt;Group&gt;">
							<path id="&lt;Path&gt;" class="s3" d="m131.77 218.29c-9.19 0.89-19.06-3.34-25.64-10.84-6.66-7.45-9.89-18.13-8.46-28.27 1.32-10.16 7.3-19.6 15.7-25 8.34-5.46 19-6.9 27.62-3.58-9.13 0.85-17.07 4.31-22.94 9.73-5.9 5.39-9.6 12.57-10.65 20.17-1.04 7.61 0.61 15.52 4.85 22.29 4.22 6.81 10.95 12.26 19.52 15.5z"/>
						</g>
						<g id="&lt;Group&gt;">
							<path id="&lt;Path&gt;" class="s3" d="m149.4 328.21c-7.79 4.95-18.51 5.66-27.77 1.96-9.31-3.62-17.04-11.68-20.36-21.37-3.43-9.64-2.38-20.77 2.67-29.39 4.95-8.66 13.8-14.77 22.99-15.72-7.75 4.9-13.26 11.58-16.04 19.08-2.81 7.48-2.86 15.55-0.34 22.8 2.52 7.25 7.58 13.56 14.43 17.67 6.84 4.16 15.32 5.96 24.42 4.97z"/>
						</g>
						<g id="&lt;Group&gt;">
							<path id="&lt;Path&gt;" class="s3" d="m224.4 405.76c-3.01 8.73-10.97 15.95-20.51 18.83-9.54 2.96-20.61 1.47-29.24-4.05-8.69-5.41-14.79-14.77-16.22-24.66-1.51-9.86 1.61-20.15 8.21-26.61-3.02 8.66-3.17 17.31-0.67 24.91 2.45 7.61 7.45 13.96 13.93 18.06 6.48 4.11 14.37 5.89 22.29 4.84 7.94-1 15.7-4.87 22.21-11.32z"/>
						</g>
						<g id="&lt;Group&gt;">
							<path id="&lt;Path&gt;" class="s3" d="m226.12 350.86c-6.77 6.28-17.19 8.9-26.96 6.93-9.81-1.88-18.87-8.41-23.88-17.34-5.11-8.87-6.08-20-2.68-29.4 3.32-9.4 10.92-17.01 19.79-19.6-6.75 6.21-10.96 13.78-12.34 21.66-1.42 7.86-0.01 15.81 3.77 22.49 3.79 6.67 9.9 11.96 17.38 14.77 7.48 2.86 16.14 3.11 24.92 0.49z"/>
						</g>
					</g>
					<g id="&lt;Group&gt;">
						<g id="&lt;Group&gt;">
							<path id="&lt;Path&gt;" class="s3" d="m338.86 123.92c5.72-7.16 8.74-15.28 8.9-23.29 0.19-7.99-2.42-15.63-7.19-21.65-4.77-6.01-11.61-10.3-19.44-11.93-7.82-1.67-16.41-0.6-24.7 3.32 5.72-7.25 15.63-11.44 25.59-10.99 9.99 0.36 19.94 5.44 26.25 13.5 6.4 8 9.06 18.84 7.13 28.64-1.84 9.8-8.18 18.48-16.54 22.4z"/>
						</g>
						<g id="&lt;Group&gt;">
							<path id="&lt;Path&gt;" class="s3" d="m340.32 204.44c5.72-7.16 8.74-15.29 8.89-23.29 0.2-7.99-2.41-15.64-7.18-21.65-4.77-6.01-11.62-10.3-19.44-11.93-7.82-1.67-16.41-0.6-24.7 3.32 5.72-7.25 15.62-11.45 25.59-10.99 9.98 0.36 19.94 5.43 26.24 13.5 6.41 7.99 9.07 18.84 7.14 28.64-1.84 9.8-8.18 18.47-16.54 22.4z"/>
						</g>
						<g id="&lt;Group&gt;">
							<path id="&lt;Path&gt;" class="s3" d="m386.68 218.29c8.57-3.24 15.31-8.69 19.52-15.5 4.24-6.77 5.89-14.68 4.85-22.29-1.04-7.6-4.74-14.78-10.64-20.17-5.88-5.42-13.82-8.88-22.94-9.73 8.61-3.32 19.27-1.88 27.61 3.58 8.41 5.4 14.39 14.84 15.7 25 1.44 10.14-1.8 20.82-8.45 28.27-6.58 7.5-16.46 11.73-25.65 10.84z"/>
						</g>
						<g id="&lt;Group&gt;">
							<path id="&lt;Path&gt;" class="s3" d="m369.05 328.21c9.11 0.99 17.59-0.81 24.43-4.97 6.85-4.11 11.91-10.42 14.43-17.67 2.51-7.25 2.47-15.32-0.34-22.8-2.78-7.5-8.29-14.18-16.04-19.08 9.18 0.95 18.03 7.06 22.99 15.72 5.04 8.62 6.1 19.75 2.66 29.39-3.31 9.69-11.05 17.75-20.35 21.37-9.27 3.7-19.99 2.99-27.78-1.96z"/>
						</g>
						<g id="&lt;Group&gt;">
							<path id="&lt;Path&gt;" class="s3" d="m294.06 405.76c6.51 6.45 14.26 10.32 22.2 11.32 7.93 1.05 15.81-0.73 22.3-4.84 6.48-4.1 11.47-10.45 13.93-18.06 2.49-7.6 2.34-16.25-0.68-24.91 6.6 6.46 9.72 16.75 8.21 26.61-1.42 9.89-7.52 19.25-16.22 24.66-8.63 5.52-19.69 7.01-29.23 4.05-9.55-2.88-17.5-10.1-20.51-18.83z"/>
						</g>
						<g id="&lt;Group&gt;">
							<path id="&lt;Path&gt;" class="s3" d="m292.33 350.86c8.78 2.62 17.45 2.37 24.92-0.49 7.48-2.81 13.6-8.1 17.38-14.77 3.79-6.68 5.2-14.63 3.78-22.49-1.38-7.88-5.6-15.45-12.34-21.66 8.87 2.59 16.47 10.2 19.78 19.6 3.41 9.4 2.44 20.53-2.68 29.4-5.01 8.93-14.07 15.46-23.87 17.34-9.78 1.97-20.2-0.65-26.97-6.93z"/>
						</g>
					</g>
				</g>
				<path id="&lt;Compound Path&gt;" class="s4" d="m448.25 427.7c-12.58 0-22.75-10.17-22.75-22.75 0-12.58 10.17-22.75 22.75-22.75 12.58 0 22.75 10.17 22.75 22.75 0 12.58-10.17 22.75-22.75 22.75zm0-5.03c-9.8 0-17.72-7.92-17.72-17.72 0-9.8 7.92-17.72 17.72-17.72 9.8 0 17.72 7.92 17.72 17.72 0 9.8-7.92 17.72-17.72 17.72z"/>
				<path id="&lt;Compound Path&gt;" class="s4" d="m77.56 98.57c-15.47 0-27.97-12.5-27.97-27.97 0-15.46 12.5-27.96 27.97-27.96 15.46 0 27.96 12.5 27.96 27.96 0 15.47-12.5 27.97-27.96 27.97zm0-6.19c-12.04 0-21.78-9.73-21.78-21.78 0-12.04 9.74-21.77 21.78-21.77 12.04 0 21.77 9.73 21.77 21.77 0 12.05-9.73 21.78-21.77 21.78z"/>
			</g>
		</g>
	</g>
</svg>