<svg version="1.2" xmlns="http://www.w3.org/2000/svg" viewBox="0 -5.684341886080802e-14 500 500.00000000000006" width="499" height="500">
	<style>
		tspan { white-space:pre } 
		.s0 { fill: #230e09 } 
		.s1 { fill: #3481ff } 
		.s2 { fill: #0b66fd } 
		.s3 { fill: #aecfff } 
		.s4 { fill: #cd4234 } 
		.s5 { fill: #ffffff } 
		.s6 { fill: none;stroke: #230e09;stroke-miterlimit:10;stroke-width: 1.4 } 
	</style>
	<g id="OBJECTS">
		<g id="&lt;Group&gt;">
			<g id="&lt;Group&gt;">
				<path id="&lt;Path&gt;" class="s0" d="m143.61 469.99c-34.43 0-62.25-27.83-62.25-62.25 0-34.43 27.82-62.25 62.25-62.25 34.42 0 62.25 27.82 62.25 62.25 0 34.42-27.83 62.25-62.25 62.25z"/>
				<path id="&lt;Path&gt;" class="s1" d="m124.25 490.21h-57.32c0 0-41.93-31.68-43.93-64.94 8.41-8.2 34.81 21.57 34.81 21.57 0 0-25.83-33.71-21.16-53.69 27.22 6.42 39.77 37.06 39.77 37.06-6.06-15.81-4.48-23.25 1.38-37.06 16.58 7.23 36.67 58.43 46.45 97.06z"/>
				<path id="&lt;Path&gt;" class="s2" d="m411.7 484.21c0 0 49.78-7.45 66.26-67.8-25.4-1.48-58.62 38.11-58.62 38.11 33.22-39.59 36.49-89.41 36.49-89.41 0 0-41.97 11.88-58.16 76.17 12.46-84.13-11.7-94.15-11.7-94.15 0 0-31.47 57.77-28.13 106.76-0.1 21.5 53.86 30.32 53.86 30.32z"/>
				<path id="&lt;Path&gt;" class="s0" d="m252.86 490.48h175.89c0 0-18.21-30.77-43.58-21.15-25.37 9.63-36.49-54.4-89.06-32.71-52.58 21.69-124.76-104.29-179.92-4.52-44.67 44.67 136.67 58.38 136.67 58.38z"/>
				<path id="&lt;Path&gt;" class="s3" d="m435.28 289.34l-19.22-34.35c-7.74-13.83-10.46-29.81-8.27-45.51 5.42-38.85-1.14-116.16-138.61-117.62v54.59c0 6.53 5.29 11.82 11.81 11.82h0.01c3.56 0 6.97-1.58 9.16-4.39 5.53-7.08 14.62-11.23 24.59-9.72 11.4 1.73 20.48 11.17 21.81 22.63 1.84 15.79-10.46 29.19-25.88 29.19-8.25 0-15.59-3.83-20.36-9.82-2.28-2.85-5.67-4.59-9.33-4.59-6.52 0-11.81 5.29-11.81 11.82v54.62h-54.63c-6.53 0-11.82-5.29-11.82-11.81 0-3.66 1.74-7.05 4.59-9.33 5.99-4.77 9.83-12.11 9.83-20.36 0-15.42-13.4-27.72-29.2-25.88-11.45 1.33-20.9 10.41-22.63 21.81-1.51 9.97 2.65 19.06 9.72 24.59 2.81 2.19 4.39 5.6 4.39 9.16v0.01c0 6.52-5.29 11.81-11.82 11.81h-54.54c1.29 54.38 22.64 112.76 58.77 156.92 6.62 8.1 10.47 18.12 10.47 28.58v56.7h141.33v-48.7c0-13.56 11.07-24.51 24.62-24.36l13.95 0.14c27.4 0.3 49.76-21.83 49.76-49.22v-37.85c0-7.44 4.15-14.25 10.76-17.66l6.58-3.39c7.24-3.73 9.95-12.72 5.97-19.83z"/>
				<path id="&lt;Path&gt;" class="s4" d="m269.18 91.82h-3.96q2 0.01 3.96 0.04z"/>
				<path id="&lt;Path&gt;" class="s2" d="m157.25 178.52c-1.47-3.24-4.32-5.7-7.78-6.53-8.73-2.11-16.27-8.68-19.01-18.39-3.13-11.09 1.72-23.26 11.6-29.2 13.62-8.2 30.91-2.54 37.28 11.51 3.4 7.51 2.94 15.78-0.54 22.59-1.66 3.26-1.84 7.07-0.33 10.4 2.7 5.94 9.7 8.57 15.65 5.88l49.74-22.57-22.56-49.74-19.39-42.75-22.55-49.72q-1.79 0.78-3.61 1.6c-99.87 45.29-110.02 130.57-74.05 205.09l49.67-22.52c5.94-2.7 8.57-9.7 5.88-15.65z"/>
				<path id="&lt;Path&gt;" class="s2" d="m227.18 86.82c3.33-1.51 7.14-1.33 10.39 0.33 6.82 3.48 15.09 3.94 22.6 0.54 14.05-6.37 19.71-23.66 11.51-37.28-5.95-9.88-18.11-14.74-29.21-11.6-9.71 2.74-16.27 10.28-18.38 19.01-0.84 3.46-3.29 6.31-6.53 7.78h-0.01c-5.94 2.69-12.94 0.06-15.64-5.88l19.39 42.75c-2.7-5.95-0.06-12.95 5.88-15.65z"/>
				<path id="&lt;Path&gt;" class="s2" d="m112.52 490.21h186.95c0 0-13.93-21.78-31.66-16.09-17.73 5.68-6.47-39.66-52.29-28.83-45.83 10.82-38.98-49.83-94.96-31.13-39.35 13.15-24.17 58.93-8.04 76.05z"/>
				<path id="&lt;Path&gt;" class="s5" d="m179.04 490.21h-54.9c0 0-14.6-11.73-15.7-26.21 10.14-5.38 25.33 14.31 25.33 14.31 0 0-19.4-22.3-13.64-45.53 19.51-2.95 33.25 37.63 33.25 37.63 0 0-5.78-16.16 1.25-32.64 14.04 4.75 24.86 27.1 24.41 52.44z"/>
			</g>
			<path id="&lt;Path&gt;" class="s6" d="m364.61 246.97c0 8.05-6.53 14.58-14.58 14.58-8.06 0-14.58-6.53-14.58-14.58"/>
		</g>
	</g>
</svg>