<svg version="1.2" xmlns="http://www.w3.org/2000/svg" viewBox="0 -5.684341886080802e-14 500 500.00000000000006" width="500" height="501">
	<style>
		tspan { white-space:pre } 
		.s0 { fill: #0b66fd } 
		.s1 { fill: #aecfff } 
	</style>
	<g id="OBJECTS">
		<g id="&lt;Group&gt;">
			<g id="&lt;Group&gt;">
				<path id="&lt;Path&gt;" class="s0" d="m352.18 316.2c2.09 1.74 2.73 4.7 1.34 7.05q-0.06 0.09-0.12 0.19c-17.36 29.32-40.63 54.58-65.71 77.46-12.01 10.98-23.94 21.8-37.92 30.04-7.85 4.63-37.84 26.14-46.67 23.1-42.29-14.55-79.64-43.48-112.91-72.54-32.52-28.36-57.21-65.71-70.2-106.88-9.66-30.5-12.89-63.98-2.89-94.41 18.49-56.36 80.28-82.4 132.22-51.84 22.34 13.16 38.66 34.38 51.28 57.2 1.99 3.58 7.03 3.84 9.32 0.44 7.16-10.65 14.92-21.31 23.7-30.62 2.27-2.4 6.09-2.22 8.23 0.29q0.02 0.02 0.04 0.05c5.51 6.35 12.53 11.85 22.14 17.33q4.53 2.56 9.22 4.81c3.82 1.83 4.37 7.12 0.85 9.49-10.89 7.34-19.85 15.45-27.17 24.55-8.06 9.94-11.86 19.37-11.57 28.87 0.36 12.2 8.06 23.95 19.53 29.94 6.04 3.2 13.17 4.88 20.58 4.88 3.8 0 7.65-0.41 11.34-1.24 10.75-2.3 19.92-7.54 25.83-11.26q4.47-2.77 8.72-5.86c3.43-2.48 8.31-0.46 8.73 3.75 1.31 13.05 4.2 24.96 8.64 35.56 3.58 8.64 8.03 15.14 13.45 19.65z"/>
				<path id="&lt;Path&gt;" class="s1" d="m488.79 218.17c-0.73-7.92-5.07-15.17-10.7-20.75-5.7-5.58-12.77-9.55-19.97-12.81-9.21-4.19-18.81-7.38-28.6-9.5 0 0 0 0-0.07 0q-10.61-2.45-21.38-3.19c2.23-1.13 4.47-2.26 6.63-3.46 5.1-2.71 10.06-5.55 14.93-8.68 14.2-9.15 27.34-20.34 36.71-34.39 4.22-6.23 7.75-13.57 6.89-21.07-0.95-7.84-6.9-14.62-14.23-17.73-7.33-3.04-15.76-2.72-23.35-0.36-7.6 2.36-14.42 6.68-20.8 11.48-10.41 7.91-19.71 17.27-27.69 27.73-2.53 3.34-4.91 6.75-7.15 10.29 0.1-3.98 0.12-8.02 0.07-12-0.06-4.25-0.19-8.5-0.53-12.75-1.28-16.78-4.98-33.7-12.89-48.58-3.46-6.7-8.27-13.3-15.24-16.07-7.39-2.9-16.2-0.86-22.37 4.15-6.23 5.01-9.91 12.57-11.45 20.36-1.46 7.85-0.94 15.92 0.29 23.76 0.89 5.86 2.2 11.64 3.86 17.34 0.08 0.21 0.15 0.35 0.23 0.56 1.43 5.21 3.22 10.4 5.36 15.38-1.89-1.36-3.78-2.8-5.73-4.16-0.87-0.61-1.81-1.22-2.68-1.76-13.24-8.62-27.86-15.48-43.41-18.42-7.43-1.41-15.53-1.73-22.01 2.01-6.91 3.97-10.78 12.17-10.68 20.12 0.03 7.94 3.66 15.57 8.81 21.59 5.22 6.02 11.89 10.64 18.75 14.55 10.25 5.79 21.1 10.29 32.41 13.43l0.35-0.02c5.3 1.55 10.58 2.74 16 3.64-2.45 0.99-4.9 1.99-7.36 3.06-5.18 2.14-10.29 4.5-15.25 7.13-14.95 7.83-28.98 17.83-39.58 30.99-4.73 5.82-8.91 12.83-8.69 20.35 0.24 7.94 5.57 15.23 12.64 18.92 6.99 3.69 15.45 4.14 23.2 2.42 7.76-1.65 14.95-5.35 21.71-9.6 11.84-7.38 22.56-16.57 31.75-27.14 2.2-2.47 4.32-5.02 6.3-7.64-0.5 4.56-0.93 9.12-1.22 13.67v0.07c-0.24 3.69-0.42 7.25-0.45 10.94-0.2 16.89 1.95 34 8.45 49.56 2.9 7 7.09 13.98 13.86 17.32 7.06 3.55 16.03 2.35 22.64-2.1 6.61-4.46 10.93-11.69 13.12-19.27 2.25-7.66 2.36-15.76 1.84-23.69-0.79-12.04-3.06-23.89-6.88-35.34-1.64-4.99-3.49-9.9-5.7-14.73 1.74 1.22 3.48 2.45 5.29 3.6 5.14 3.47 10.35 6.64 15.69 9.68 14.72 8.14 30.8 14.39 47.67 16.02 7.47 0.69 15.62 0.38 21.73-3.99 6.54-4.53 9.69-12.99 8.88-20.92z"/>
			</g>
		</g>
	</g>
</svg>